<mxfile host="Electron" modified="2024-02-08T17:18:09.781Z" agent="Mozilla/5.0 (Windows NT 10.0; Win64; x64) AppleWebKit/537.36 (KHTML, like Gecko) draw.io/22.1.18 Chrome/120.0.6099.199 Electron/28.1.2 Safari/537.36" etag="t2KFPYhVIxeOP7-NVcod" version="22.1.18" type="device">
  <diagram id="QMwD3RcpPJ7rpiHCDOo0" name="Page-1">
    <mxGraphModel dx="1656" dy="1078" grid="0" gridSize="10" guides="1" tooltips="1" connect="1" arrows="1" fold="1" page="1" pageScale="1" pageWidth="850" pageHeight="1100" math="0" shadow="0">
      <root>
        <mxCell id="0" />
        <mxCell id="1" parent="0" />
        <mxCell id="GBbyrZOM8W1Q-wa3AHwN-2" style="edgeStyle=orthogonalEdgeStyle;rounded=0;orthogonalLoop=1;jettySize=auto;html=1;entryX=0.5;entryY=0;entryDx=0;entryDy=0;" edge="1" parent="1" source="6z14z-k8URAKEIRkB4xy-21" target="6z14z-k8URAKEIRkB4xy-22">
          <mxGeometry relative="1" as="geometry" />
        </mxCell>
        <mxCell id="6z14z-k8URAKEIRkB4xy-21" value="enter user name and password&amp;nbsp;" style="rounded=1;whiteSpace=wrap;html=1;fillColor=#cce5ff;strokeColor=#36393d;" parent="1" vertex="1">
          <mxGeometry x="272.5" y="150" width="125" height="60" as="geometry" />
        </mxCell>
        <mxCell id="GBbyrZOM8W1Q-wa3AHwN-5" style="edgeStyle=orthogonalEdgeStyle;rounded=0;orthogonalLoop=1;jettySize=auto;html=1;" edge="1" parent="1" source="6z14z-k8URAKEIRkB4xy-22" target="Ki4qa7BaspJR9cn0PC4N-3">
          <mxGeometry relative="1" as="geometry" />
        </mxCell>
        <mxCell id="GBbyrZOM8W1Q-wa3AHwN-6" value="No" style="edgeLabel;html=1;align=center;verticalAlign=middle;resizable=0;points=[];" vertex="1" connectable="0" parent="GBbyrZOM8W1Q-wa3AHwN-5">
          <mxGeometry x="-0.1258" y="-1" relative="1" as="geometry">
            <mxPoint as="offset" />
          </mxGeometry>
        </mxCell>
        <mxCell id="6z14z-k8URAKEIRkB4xy-22" value="Username &lt;br&gt;&amp;nbsp;repeated?" style="rhombus;whiteSpace=wrap;html=1;fillColor=#ffff88;strokeColor=#36393d;" parent="1" vertex="1">
          <mxGeometry x="265" y="270" width="140" height="110" as="geometry" />
        </mxCell>
        <mxCell id="6z14z-k8URAKEIRkB4xy-28" value="successfully registered&amp;nbsp;" style="rounded=1;whiteSpace=wrap;html=1;fillColor=#cce5ff;strokeColor=#36393d;" parent="1" vertex="1">
          <mxGeometry x="360" y="609" width="120" height="60" as="geometry" />
        </mxCell>
        <mxCell id="6z14z-k8URAKEIRkB4xy-30" value="Log in to the system&amp;nbsp;" style="rounded=1;whiteSpace=wrap;html=1;fillColor=#cce5ff;strokeColor=#36393d;" parent="1" vertex="1">
          <mxGeometry x="360" y="719" width="120" height="60" as="geometry" />
        </mxCell>
        <mxCell id="6z14z-k8URAKEIRkB4xy-31" value="" style="endArrow=classic;html=1;exitX=0.5;exitY=1;exitDx=0;exitDy=0;entryX=0.5;entryY=0;entryDx=0;entryDy=0;" parent="1" source="6z14z-k8URAKEIRkB4xy-28" target="6z14z-k8URAKEIRkB4xy-30" edge="1">
          <mxGeometry width="50" height="50" relative="1" as="geometry">
            <mxPoint x="210" y="574" as="sourcePoint" />
            <mxPoint x="260" y="524" as="targetPoint" />
          </mxGeometry>
        </mxCell>
        <mxCell id="6z14z-k8URAKEIRkB4xy-32" value="" style="ellipse;html=1;shape=endState;fillColor=#000000;strokeColor=#ff0000;" parent="1" vertex="1">
          <mxGeometry x="405" y="849" width="30" height="30" as="geometry" />
        </mxCell>
        <mxCell id="6z14z-k8URAKEIRkB4xy-33" value="" style="endArrow=classic;html=1;exitX=0.5;exitY=1;exitDx=0;exitDy=0;entryX=0.5;entryY=0;entryDx=0;entryDy=0;" parent="1" source="6z14z-k8URAKEIRkB4xy-30" target="6z14z-k8URAKEIRkB4xy-32" edge="1">
          <mxGeometry width="50" height="50" relative="1" as="geometry">
            <mxPoint x="225" y="719" as="sourcePoint" />
            <mxPoint x="275" y="669" as="targetPoint" />
          </mxGeometry>
        </mxCell>
        <mxCell id="GBbyrZOM8W1Q-wa3AHwN-7" style="edgeStyle=orthogonalEdgeStyle;rounded=0;orthogonalLoop=1;jettySize=auto;html=1;entryX=0.75;entryY=0;entryDx=0;entryDy=0;exitX=1;exitY=0.5;exitDx=0;exitDy=0;" edge="1" parent="1" source="Ki4qa7BaspJR9cn0PC4N-3" target="6z14z-k8URAKEIRkB4xy-28">
          <mxGeometry relative="1" as="geometry" />
        </mxCell>
        <mxCell id="GBbyrZOM8W1Q-wa3AHwN-8" value="Yes" style="edgeLabel;html=1;align=center;verticalAlign=middle;resizable=0;points=[];" vertex="1" connectable="0" parent="GBbyrZOM8W1Q-wa3AHwN-7">
          <mxGeometry x="0.0929" y="4" relative="1" as="geometry">
            <mxPoint x="-3" as="offset" />
          </mxGeometry>
        </mxCell>
        <mxCell id="GBbyrZOM8W1Q-wa3AHwN-9" style="edgeStyle=orthogonalEdgeStyle;rounded=0;orthogonalLoop=1;jettySize=auto;html=1;endArrow=classic;endFill=1;" edge="1" parent="1" source="Ki4qa7BaspJR9cn0PC4N-3">
          <mxGeometry relative="1" as="geometry">
            <mxPoint x="240.6968544407896" y="550.8363037109375" as="targetPoint" />
          </mxGeometry>
        </mxCell>
        <mxCell id="GBbyrZOM8W1Q-wa3AHwN-10" value="No" style="edgeLabel;html=1;align=center;verticalAlign=middle;resizable=0;points=[];" vertex="1" connectable="0" parent="GBbyrZOM8W1Q-wa3AHwN-9">
          <mxGeometry x="0.1275" y="-1" relative="1" as="geometry">
            <mxPoint as="offset" />
          </mxGeometry>
        </mxCell>
        <mxCell id="Ki4qa7BaspJR9cn0PC4N-3" value="&lt;span&gt;Password Valid ?&lt;/span&gt;" style="rhombus;whiteSpace=wrap;html=1;fillColor=#FFFF88;strokeColor=#36393d;" parent="1" vertex="1">
          <mxGeometry x="265" y="432" width="140" height="110" as="geometry" />
        </mxCell>
        <mxCell id="Ki4qa7BaspJR9cn0PC4N-6" value="" style="ellipse;html=1;shape=startState;fillColor=#000000;strokeColor=#ff0000;" parent="1" vertex="1">
          <mxGeometry x="319" y="10" width="30" height="30" as="geometry" />
        </mxCell>
        <mxCell id="Ki4qa7BaspJR9cn0PC4N-7" value="" style="edgeStyle=orthogonalEdgeStyle;html=1;verticalAlign=bottom;endArrow=open;endSize=8;strokeColor=#000000;entryX=0.5;entryY=0;entryDx=0;entryDy=0;" parent="1" source="Ki4qa7BaspJR9cn0PC4N-6" target="6z14z-k8URAKEIRkB4xy-21" edge="1">
          <mxGeometry relative="1" as="geometry">
            <mxPoint x="333.48387096774184" y="90" as="targetPoint" />
          </mxGeometry>
        </mxCell>
        <mxCell id="Ki4qa7BaspJR9cn0PC4N-17" value="" style="shape=line;html=1;strokeWidth=6;strokeColor=#000000;fillColor=#000000;" parent="1" vertex="1">
          <mxGeometry x="193" y="550" width="49" height="10" as="geometry" />
        </mxCell>
        <mxCell id="Ki4qa7BaspJR9cn0PC4N-20" value="Error Message&amp;nbsp;" style="rounded=1;whiteSpace=wrap;html=1;fillColor=#cce5ff;strokeColor=#36393d;" parent="1" vertex="1">
          <mxGeometry x="154" y="629" width="120" height="60" as="geometry" />
        </mxCell>
        <mxCell id="GBbyrZOM8W1Q-wa3AHwN-17" style="edgeStyle=orthogonalEdgeStyle;rounded=0;orthogonalLoop=1;jettySize=auto;html=1;entryX=0;entryY=0.5;entryDx=0;entryDy=0;" edge="1" parent="1" source="Ki4qa7BaspJR9cn0PC4N-21" target="6z14z-k8URAKEIRkB4xy-21">
          <mxGeometry relative="1" as="geometry">
            <Array as="points">
              <mxPoint x="97" y="769" />
              <mxPoint x="97" y="180" />
            </Array>
          </mxGeometry>
        </mxCell>
        <mxCell id="Ki4qa7BaspJR9cn0PC4N-21" value="Clear Field" style="rounded=1;whiteSpace=wrap;html=1;fillColor=#cce5ff;strokeColor=#36393d;" parent="1" vertex="1">
          <mxGeometry x="154" y="739" width="120" height="60" as="geometry" />
        </mxCell>
        <mxCell id="Ki4qa7BaspJR9cn0PC4N-22" value="" style="endArrow=classic;html=1;exitX=0.5;exitY=1;exitDx=0;exitDy=0;" parent="1" source="Ki4qa7BaspJR9cn0PC4N-20" target="Ki4qa7BaspJR9cn0PC4N-21" edge="1">
          <mxGeometry width="50" height="50" relative="1" as="geometry">
            <mxPoint x="64" y="719" as="sourcePoint" />
            <mxPoint x="114" y="669" as="targetPoint" />
          </mxGeometry>
        </mxCell>
        <mxCell id="GBbyrZOM8W1Q-wa3AHwN-13" style="edgeStyle=orthogonalEdgeStyle;rounded=0;orthogonalLoop=1;jettySize=auto;html=1;endArrow=classic;endFill=1;" edge="1" parent="1" source="6z14z-k8URAKEIRkB4xy-22" target="Ki4qa7BaspJR9cn0PC4N-17">
          <mxGeometry relative="1" as="geometry">
            <Array as="points">
              <mxPoint x="195" y="323" />
            </Array>
          </mxGeometry>
        </mxCell>
        <mxCell id="GBbyrZOM8W1Q-wa3AHwN-15" value="yes" style="edgeLabel;html=1;align=center;verticalAlign=middle;resizable=0;points=[];" vertex="1" connectable="0" parent="GBbyrZOM8W1Q-wa3AHwN-13">
          <mxGeometry x="-0.1106" y="-2" relative="1" as="geometry">
            <mxPoint as="offset" />
          </mxGeometry>
        </mxCell>
        <mxCell id="GBbyrZOM8W1Q-wa3AHwN-16" style="edgeStyle=orthogonalEdgeStyle;rounded=0;orthogonalLoop=1;jettySize=auto;html=1;entryX=0.567;entryY=-0.006;entryDx=0;entryDy=0;entryPerimeter=0;exitX=0.59;exitY=0.857;exitDx=0;exitDy=0;exitPerimeter=0;" edge="1" parent="1" source="Ki4qa7BaspJR9cn0PC4N-17" target="Ki4qa7BaspJR9cn0PC4N-20">
          <mxGeometry relative="1" as="geometry" />
        </mxCell>
      </root>
    </mxGraphModel>
  </diagram>
</mxfile>
